<svg xmlns="http://www.w3.org/2000/svg" viewBox="0 0 399.22 526.84"><defs><style>.cls-1{fill:#d0d3d5;}</style></defs><title>logo-withtext</title><g id="Layer_2" data-name="Layer 2"><g id="Layer_1-2" data-name="Layer 1"><path class="cls-1" d="M108.51,38.66A10.72,10.72,0,1,1,97.8,27.94,10.7,10.7,0,0,1,108.51,38.66ZM306.79,27.94A10.72,10.72,0,1,0,317.5,38.66,10.72,10.72,0,0,0,306.79,27.94ZM182,70.55a29.89,29.89,0,0,1-7.48,10.06c-1.95,1.71.9,4.54,2.84,2.84a32.39,32.39,0,0,0,8.11-10.87c1.08-2.33-2.39-4.37-3.47-2Zm32.39,2a32.42,32.42,0,0,0,8.12,10.87c1.93,1.7,4.79-1.13,2.84-2.84a29.79,29.79,0,0,1-7.49-10.06c-1.08-2.34-4.54-.3-3.47,2ZM399.22,180.66a4,4,0,1,0-8,0c0,89.39-72.72,162.1-162.1,162.1H171C81.43,342.76,8.2,270.51,8,181c0-18.34,2.86-25.46,8.66-39.72.95-2.33,2-4.83,3.05-7.57a7.8,7.8,0,0,1,.65-1.29A7.7,7.7,0,0,1,28.77,129c66,15.5,131.89,22,201.37,19.91A787.81,787.81,0,0,0,381,129.53a8.76,8.76,0,0,0,5.49-3.92,8.66,8.66,0,0,0,1.14-6.5c-12.48-69-46.4-118-82.48-119.09a50.86,50.86,0,0,0-34.72,12.74,64.61,64.61,0,0,0-8.64,8.81,14.62,14.62,0,0,1-12.23,5.32c-4.77-.26-9.71-.29-15.16-.29h-64.3c-5.27,0-10.46,0-15.55.33a14.92,14.92,0,0,1-12.08-5,92.77,92.77,0,0,0-9.3-9A51.27,51.27,0,0,0,98.29,0c-29.1.89-56.38,31.4-73,81.62a4.29,4.29,0,0,0,2.37,5.43,4,4,0,0,0,5.14-2.54C48.07,38.13,73.27,8.83,98.54,8.06c17.14-.53,28.83,10.42,29.08,10.66l.19.17c6.55,5.56,11.38,11,13.25,14.81a4.15,4.15,0,0,0,4.33,2.22c7.8-1.19,15.82-1.28,24.75-1.28h64.3c9.33,0,17.08.09,24.85,1.29a4,4,0,0,0,4.22-2.22c1.7-3.49,5.18-8.9,12.16-14.82l.19-.17c.26-.24,12-11.23,29.08-10.66,32.25,1,63,47.24,74.87,112.69a.81.81,0,0,1-.1.61.74.74,0,0,1-.46.33A779,779,0,0,1,229.9,140.83c-68.77,2.09-134-4.36-199.29-19.7a15.76,15.76,0,0,0-17,7.05,16,16,0,0,0-1.28,2.55c-1.08,2.72-2.08,5.2-3,7.5C3.28,152.94,0,161,0,180.8c.07,94.07,77.06,170,171.13,170h58C322.9,350.8,399.22,274.48,399.22,180.66Z"/><path class="cls-1" d="M114,434.61q10.46,10.54,10.45,28.93v60.17H110.2V466.88q0-14-7.41-21.83t-20.37-7.83a137.79,137.79,0,0,0-35.93,4.39v82.1H32.28V375.38H46.49v53.27a152.58,152.58,0,0,1,38.65-4.59Q103.52,424.06,114,434.61Z"/><path class="cls-1" d="M225.52,429.59a39.67,39.67,0,0,1,16.29,16q5.85,10.46,5.85,24.24a84.9,84.9,0,0,1-.62,11.07H166.61q1.66,15,11.59,24t25.8,9a97.41,97.41,0,0,0,16.51-1.36q7.94-1.35,19-4.07l2.3,11.69q-11.49,3.35-19.84,5a94.25,94.25,0,0,1-18.39,1.67q-16.08,0-27.89-6.58A44.8,44.8,0,0,1,157.62,502q-6.27-11.7-6.26-26.74,0-15.24,6.37-26.84a44.94,44.94,0,0,1,17.75-18,52.32,52.32,0,0,1,26-6.37A50.68,50.68,0,0,1,225.52,429.59ZM177,445q-9.51,9.19-10.76,24.65h68.52q-.21-15.68-9.3-24.76t-23.71-9.08Q186.46,435.76,177,445Z"/><path class="cls-1" d="M358.38,434.61q10.46,10.54,10.45,28.93v60.17H354.62V466.88q0-14-7.41-21.83t-20.37-7.83a137.79,137.79,0,0,0-35.93,4.39v82.1H276.7V375.38h14.21v53.27a152.58,152.58,0,0,1,38.65-4.59Q347.94,424.06,358.38,434.61Z"/></g></g></svg>